<svg xmlns="http://www.w3.org/2000/svg" viewBox="0 0 32 32" id="Nut-And-Bolt--Streamline-Emojitwo" height="32" width="32">
  <desc>
    Nut And Bolt Streamline Emoji: https://streamlinehq.com
  </desc>
  <title>nut and bolt</title>
  <g fill="#b6c0c6">
    <path d="M29.35 32H32v-1.7zm2.4 -4.9L9.2 4.55l-4.65 4.65 22.2 22.2 -0.7 -0.65z" stroke-width="0.5"></path>
  </g>
  <g fill="#7a8891">
    <path d="m32 27.3 -0.25 -0.2 0.25 0.25zm-5.25 4.1 0.6 0.6z" stroke-width="0.5"></path>
    <path d="m29.35 32 2.65 -1.7v-2.95l-0.25 -0.25 -5.7 3.65 0.7 0.65 0.6 0.6zm-1.7 -9 -5.7 3.65 2.05 2.05 5.7 -3.65zm-4.1 -4.15L17.85 22.5l2.05 2.05 5.7 -3.6zM15.3 10.65l-5.7 3.65 2.05 2.05 5.7 -3.65zm4.1 4.1 -5.7 3.65 2.05 2.05L21.5 16.8zM11.2 6.5 5.5 10.15l2.05 2.05 5.7 -3.6z" stroke-width="0.5"></path>
  </g>
  <path fill="#4f585b" d="m3.55 8.95 -3.55 3.5 5.5 5.5 3.5 -3.55z" stroke-width="0.5"></path>
  <path fill="#8b979e" d="M8.95 3.5 3.55 8.95 9 14.4 14.45 9z" stroke-width="0.5"></path>
  <path fill="#cedae0" d="m12.45 0 -3.5 3.5 5.5 5.5 3.5 -3.5z" stroke-width="0.5"></path>
  <path fill="#4f585b" d="m14.15 19.55 -3.5 3.55 5.5 5.45 3.5 -3.5z" stroke-width="0.5"></path>
  <path fill="#8b979e" d="M19.6 14.15 14.15 19.55l5.5 5.5 5.4 -5.4z" stroke-width="0.5"></path>
  <path fill="#cedae0" d="m23.1 10.65 -3.5 3.5 5.45 5.5 3.55 -3.55z" stroke-width="0.5"></path>
</svg>